# .PCD v0.7 - Point Cloud Data file format
VERSION 0.7
FIELDS x y z
SIZE 4 4 4
TYPE F F F
COUNT 1 1 1
WIDTH 1053
HEIGHT 1
VIEWPOINT 0 0 0 1 0 0 0
POINTS 1053
DATA ascii
5.1320004 -2.3246944 8.0140781
5.1320004 -2.4470465 8.0140781
5.1320004 -2.5693991 8.0140781
5.1320004 -2.6917515 8.0140781
5.1320004 -2.8141036 8.0140781
5.1320004 -2.936456 8.0140781
5.1320004 -3.0588083 8.0140781
0.63500005 -0.39361593 0.99160939
0.60300004 -0.38815632 0.94163853
0.59400004 -0.39652455 0.92758423
0.55300003 -0.38233912 0.86355901
0.55300003 -0.39552322 0.86355901
0.42000002 -0.32042384 0.65586764
0.41400003 -0.32571661 0.64649808
0.41400003 -0.33558682 0.64649808
0.41400003 -0.34545702 0.64649808
0.067000002 -0.057504639 0.1046265
0.063000001 -0.055573512 0.098380141
0.061000004 -0.055263583 0.095256962
0.059000004 -0.054858282 0.09213379
0.057000004 -0.054357622 0.089010604
0.055000003 -0.053761594 0.085887425
0.054000001 -0.054071527 0.084325835
0.052000001 -0.053308614 0.081202656
0.049000002 -0.052569542 0.076517895
0.048 -0.052641064 0.074956298
0.047000002 -0.052664906 0.073394708
0.042000003 -0.051067557 0.065586761
0.041000001 -0.050829146 0.064025171
0.036000002 -0.050638415 0.056217223
0.033 -0.05035232 0.051532451
0.030000001 -0.048635766 0.046847686
0.027000001 -0.048278149 0.042162918
5.2120004 -2.4851925 8.0147457
5.2120004 -2.8579712 8.0147457
5.2120004 -3.1064904 8.0147457
0.60300004 -0.38815632 0.92726237
0.574 -0.38317353 0.8826676
0.56100005 -0.38787025 0.86267698
0.56100005 -0.40124509 0.86267698
0.43800002 -0.32371393 0.67353386
0.066 -0.056646358 0.10149139
0.063000001 -0.055573512 0.096878149
0.057000004 -0.054357622 0.08765167
0.054000001 -0.054071527 0.083038419
0.048 -0.052641064 0.073811926
0.046000004 -0.052641068 0.070736438
0.041000001 -0.050829146 0.063047685
0.038000003 -0.050733779 0.058434445
0.037 -0.050280798 0.056896694
0.036000002 -0.049780138 0.055358946
0.034000002 -0.049446359 0.052283451
0.034000002 -0.05025696 0.052283451
0.033 -0.049565565 0.050745696
0.031000001 -0.049517885 0.047670204
5.2940001 -2.650506 8.0146255
0.63500005 -0.39361593 0.96133125
0.61300004 -0.39459342 0.92802525
0.574 -0.38317353 0.86898285
0.57000005 -0.39409277 0.86292726
0.56100005 -0.40124509 0.84930205
0.43800002 -0.32371393 0.66309142
0.42700002 -0.32576427 0.64643848
0.42700002 -0.33594441 0.64643848
0.42700002 -0.34612453 0.64643848
0.069000006 -0.057576168 0.10445961
0.065000005 -0.055788085 0.098403983
0.063000001 -0.055573512 0.095376164
0.061000004 -0.055263583 0.092348352
0.054000001 -0.054071527 0.081751004
0.052000001 -0.053308614 0.078723185
0.051000003 -0.053499345 0.077209279
0.049000002 -0.052569542 0.07418146
0.048 -0.052641064 0.072667554
0.047000002 -0.052664906 0.071153648
0.046000004 -0.052641068 0.069639742
0.044000003 -0.051401328 0.066611931
0.043000001 -0.051258285 0.065098025
0.042000003 -0.051067557 0.063584112
0.041000001 -0.050829146 0.062070202
0.041000001 -0.051806625 0.062070202
0.040000003 -0.051496696 0.060556296
0.039000001 -0.051139075 0.059042387
0.038000003 -0.050733779 0.057528481
0.037 -0.050280798 0.056014571
0.036000002 -0.049780138 0.054500666
0.036000002 -0.050638415 0.054500666
0.035 -0.050066229 0.052986756
0.034000002 -0.049446359 0.05147285
0.034000002 -0.05025696 0.05147285
0.033 -0.049565565 0.049958944
0.028000001 -0.049398679 0.042389408
0.027000001 -0.048278149 0.040875502
0.027000001 -0.048921857 0.040875502
0.026000001 -0.047729805 0.039361592
0.026000001 -0.048349671 0.039361592
0.026000001 -0.048969541 0.039361592
5.3790002 -2.6930625 8.0150671
5.3790002 -3.2060268 8.0150671
0.63500005 -0.39361593 0.94619215
0.62300003 -0.40103048 0.92831135
0.57900006 -0.38651133 0.86274844
0.57900006 -0.40031528 0.86274844
0.45800003 -0.32757619 0.68245041
0.43800002 -0.32371393 0.6526491
0.43400002 -0.33110467 0.64668876
0.43400002 -0.3414517 0.64668876
0.43400002 -0.35179871 0.64668876
0.068000004 -0.056741726 0.10132451
0.065000005 -0.055788085 0.096854314
0.063000001 -0.055573512 0.093874179
0.061000004 -0.055263583 0.090894051
0.059000004 -0.054858282 0.087913916
0.057000004 -0.054357622 0.084933788
0.055000003 -0.053761594 0.081953652
0.054000001 -0.054071527 0.080463581
0.052000001 -0.053308614 0.077483445
0.051000003 -0.053499345 0.075993389
0.049000002 -0.052569542 0.073013246
0.048 -0.052641064 0.071523182
0.047000002 -0.052664906 0.070033118
0.046000004 -0.052641068 0.068543054
0.044000003 -0.051401328 0.065562926
0.043000001 -0.051258285 0.064072847
0.042000003 -0.051067557 0.062582791
0.041000001 -0.050829146 0.061092719
0.041000001 -0.051806625 0.061092719
0.040000003 -0.051496696 0.059602655
0.039000001 -0.051139075 0.058112584
0.038000003 -0.050733779 0.056622524
0.037 -0.050280798 0.055132452
0.036000002 -0.049780138 0.053642392
0.036000002 -0.050638415 0.053642392
0.035 -0.050066229 0.052152321
0.034000002 -0.049446359 0.050662257
0.034000002 -0.05025696 0.050662257
0.033 -0.049565565 0.049172189
0.033 -0.05035232 0.049172189
0.032000002 -0.049589407 0.047682125
0.031000001 -0.048778813 0.046192057
0.031000001 -0.049517885 0.046192057
0.030000001 -0.048635766 0.04470199
0.030000001 -0.049350996 0.04470199
0.029000001 -0.048397355 0.043211922
0.029000001 -0.049088743 0.043211922
0.028000001 -0.04806358 0.041721858
0.028000001 -0.04873113 0.041721858
0.028000001 -0.049398679 0.041721858
0.027000001 -0.048278149 0.04023179
0.027000001 -0.048921857 0.04023179
0.026000001 -0.047729805 0.038741723
0.026000001 -0.048349671 0.038741723
0.026000001 -0.048969541 0.038741723
5.4670005 -2.3461037 8.0158539
5.4670005 -3.1281381 8.0158539
0.58700001 -0.40584639 0.86067426
0.45800003 -0.32757619 0.6715312
0.44100001 -0.32593113 0.64660537
0.44100001 -0.3574729 0.64660537
0.067000002 -0.05590729 0.098237097
0.065000005 -0.055788085 0.095304653
0.055000003 -0.053761594 0.080642395
0.049000002 -0.052569542 0.07184504
0.048 -0.052641064 0.07037881
0.047000002 -0.052664906 0.068912588
0.044000003 -0.051401328 0.064513922
0.043000001 -0.051258285 0.063047685
0.042000003 -0.051067557 0.061581463
0.041000001 -0.050829146 0.060115237
0.041000001 -0.051806625 0.060115237
0.040000003 -0.051496696 0.058649015
0.039000001 -0.051139075 0.057182789
0.038000003 -0.050733779 0.055716563
0.037 -0.050280798 0.054250333
0.036000002 -0.049780138 0.052784111
0.036000002 -0.050638415 0.052784111
0.035 -0.050066229 0.051317882
0.034000002 -0.049446359 0.04985166
0.032000002 -0.049589407 0.046919208
0.031000001 -0.048778813 0.045452982
0.031000001 -0.049517885 0.045452982
0.030000001 -0.048635766 0.04398676
0.027000001 -0.048921857 0.039588083
0.026000001 -0.047729805 0.038121857
0.026000001 -0.048349671 0.038121857
0.026000001 -0.048969541 0.038121857
5.5580001 -2.3851552 8.0167713
5.5580001 -2.5176637 8.0167713
5.5580001 -2.6501725 8.0167713
5.5580001 -2.7826807 8.0167713
5.5580001 -2.9151895 8.0167713
5.5580001 -3.0476983 8.0167713
5.5580001 -3.1802068 8.0167713
5.5580001 -3.3127155 8.0167713
0.63600004 -0.39423579 0.91735637
0.60300004 -0.38815632 0.86975777
0.59800005 -0.39919475 0.86254579
0.58700001 -0.40584639 0.84667957
0.45800003 -0.32757619 0.66061199
0.44800001 -0.34178546 0.64618814
0.44800001 -0.35246626 0.64618814
0.071000002 -0.057552323 0.10240928
0.067000002 -0.05590729 0.096639745
0.065000005 -0.055788085 0.093754977
0.063000001 -0.055573512 0.090870202
0.061000004 -0.055263583 0.087985441
0.059000004 -0.054858282 0.085100673
0.057000004 -0.054357622 0.082215905
0.055000003 -0.053761594 0.079331137
0.054000001 -0.054071527 0.07788875
0.052000001 -0.053308614 0.075003974
0.051000003 -0.053499345 0.073561594
0.049000002 -0.052569542 0.070676826
0.048 -0.052641064 0.069234438
0.047000002 -0.052664906 0.067792058
0.046000004 -0.052641068 0.066349678
0.044000003 -0.051401328 0.06346491
0.043000001 -0.051258285 0.062022518
0.042000003 -0.051067557 0.060580142
0.041000001 -0.050829146 0.059137754
0.041000001 -0.051806625 0.059137754
0.040000003 -0.051496696 0.057695374
0.039000001 -0.051139075 0.056252986
0.038000003 -0.050733779 0.054810602
0.037 -0.050280798 0.053368215
0.036000002 -0.049780138 0.051925834
0.036000002 -0.050638415 0.051925834
0.035 -0.050066229 0.050483447
0.034000002 -0.049446359 0.049041066
0.034000002 -0.05025696 0.049041066
0.033 -0.049565565 0.047598679
0.033 -0.05035232 0.047598679
0.032000002 -0.049589407 0.046156295
0.031000001 -0.048778813 0.044713911
0.031000001 -0.049517885 0.044713911
0.030000001 -0.048635766 0.043271527
0.030000001 -0.049350996 0.043271527
0.029000001 -0.048397355 0.041829143
0.029000001 -0.049088743 0.041829143
0.028000001 -0.04806358 0.040386759
0.028000001 -0.04873113 0.040386759
0.028000001 -0.049398679 0.040386759
0.027000001 -0.048278149 0.038944375
0.027000001 -0.048921857 0.038944375
0.026000001 -0.047729805 0.037501987
0.026000001 -0.048349671 0.037501987
0.026000001 -0.048969541 0.037501987
5.6510005 0.53890336 8.0161877
5.6510005 0.40417755 8.0161877
5.6510005 0.26945168 8.0161877
5.6510005 0.13472584 8.0161877
5.6510005 -0 8.0161877
5.6510005 -0.13472584 8.0161877
5.6510005 -0.26945168 8.0161877
5.6510005 -0.40417755 8.0161877
5.6510005 -2.5597911 8.0161877
5.6510005 -3.2334204 8.0161877
5.6510005 -3.3681462 8.0161877
0.63600004 -0.39423579 0.90219349
0.47900003 -0.33117622 0.67948216
0.45800003 -0.32757619 0.64969277
0.45600003 -0.34788877 0.64685571
0.07 -0.056741722 0.099298015
0.067000002 -0.05590729 0.095042393
0.065000005 -0.055788085 0.092205308
0.063000001 -0.055573512 0.089368224
0.061000004 -0.055263583 0.08653114
0.059000004 -0.054858282 0.083694048
0.057000004 -0.054357622 0.080856964
0.055000003 -0.053761594 0.07801988
0.054000001 -0.054071527 0.076601326
0.052000001 -0.053308614 0.07376425
0.051000003 -0.053499345 0.072345704
0.049000002 -0.052569542 0.069508612
0.048 -0.052641064 0.068090066
0.046000004 -0.052641068 0.06525299
0.044000003 -0.051401328 0.062415902
0.043000001 -0.051258285 0.060997356
0.041000001 -0.050829146 0.058160268
0.041000001 -0.051806625 0.058160268
0.040000003 -0.051496696 0.056741726
0.039000001 -0.051139075 0.055323184
0.038000003 -0.050733779 0.053904641
0.037 -0.050280798 0.052486099
0.036000002 -0.049780138 0.051067557
0.036000002 -0.050638415 0.051067557
0.035 -0.050066229 0.049649008
0.033 -0.05035232 0.046811923
0.032000002 -0.049589407 0.045393381
0.031000001 -0.048778813 0.043974839
0.031000001 -0.049517885 0.043974839
0.027000001 -0.048278149 0.038300663
0.027000001 -0.048921857 0.038300663
0.026000001 -0.047729805 0.036882125
0.026000001 -0.048349671 0.036882125
0.026000001 -0.048969541 0.036882125
5.7470002 0.54805833 8.0153532
5.7480001 0.41111526 8.0167475
5.7480001 0.27407682 8.0167475
5.7480001 0.13703841 8.0167475
5.7480001 -0 8.0167475
5.7480001 -0.13703841 8.0167475
5.7480001 -0.27407682 8.0167475
5.7480001 -0.41111526 8.0167475
5.7480001 -2.7407684 8.0167475
5.7480001 -3.0148454 8.0167475
5.7480001 -3.1518836 8.0167475
5.7480001 -3.4259605 8.0167475
0.61500001 -0.41054305 0.85774177
0.47900003 -0.33117622 0.66806233
0.46300003 -0.33115235 0.64574713
0.46300003 -0.34219077 0.64574713
0.46300003 -0.35322917 0.64574713
0.074000001 -0.058219872 0.10320795
0.07 -0.056741722 0.097629145
0.067000002 -0.05590729 0.09344504
0.065000005 -0.055788085 0.09065564
0.063000001 -0.055573512 0.087866232
0.061000004 -0.055263583 0.085076831
0.059000004 -0.054858282 0.082287431
0.057000004 -0.054357622 0.079498023
0.055000003 -0.053761594 0.076708615
0.054000001 -0.054071527 0.075313911
0.052000001 -0.053308614 0.07252451
0.051000003 -0.053499345 0.071129806
0.049000002 -0.052569542 0.068340406
0.048 -0.052641064 0.066945694
0.046000004 -0.052641068 0.064156301
0.044000003 -0.051401328 0.061366893
0.043000001 -0.051258285 0.059972189
0.042000003 -0.051067557 0.058577493
0.041000001 -0.050829146 0.057182789
0.041000001 -0.051806625 0.057182789
0.040000003 -0.051496696 0.055788085
0.039000001 -0.051139075 0.054393381
0.038000003 -0.050733779 0.052998684
0.037 -0.050280798 0.051603977
0.036000002 -0.049780138 0.050209276
0.036000002 -0.050638415 0.050209276
0.035 -0.050066229 0.048814572
0.034000002 -0.049446359 0.047419872
0.034000002 -0.05025696 0.047419872
0.033 -0.049565565 0.046025168
0.033 -0.05035232 0.046025168
0.032000002 -0.049589407 0.044630468
0.031000001 -0.048778813 0.043235764
0.028000001 -0.049398679 0.039051659
0.027000001 -0.048278149 0.037656955
0.027000001 -0.048921857 0.037656955
0.026000001 -0.047729805 0.036262255
0.026000001 -0.048349671 0.036262255
0.026000001 -0.048969541 0.036262255
5.848 -2.6490278 8.0167952
5.848 -2.7884505 8.0167952
5.848 -3.0672956 8.0167952
5.848 -3.3461406 8.0167952
5.848 -3.485563 8.0167952
0.63500005 -0.39361593 0.87049675
0.63100004 -0.40618017 0.8650133
0.61500001 -0.41054305 0.84307951
0.47900003 -0.33117622 0.65664244
0.47100002 -0.33687422 0.64567554
0.47100002 -0.34810334 0.64567554
0.47100002 -0.3593325 0.64567554
0.073000006 -0.057433121 0.10007286
0.07 -0.056741722 0.095960267
0.067000002 -0.05590729 0.091847688
0.065000005 -0.055788085 0.089105971
0.063000001 -0.055573512 0.086364247
0.061000004 -0.055263583 0.08362253
0.059000004 -0.054858282 0.080880806
0.055000003 -0.053761594 0.075397357
0.054000001 -0.054071527 0.074026495
0.052000001 -0.053308614 0.071284771
0.051000003 -0.053499345 0.069913916
0.049000002 -0.052569542 0.067172192
0.048 -0.052641064 0.065801322
0.047000002 -0.052664906 0.064430468
0.046000004 -0.052641068 0.063059606
0.044000003 -0.051401328 0.060317889
0.043000001 -0.051258285 0.058947023
0.042000003 -0.051067557 0.057576165
0.041000001 -0.050829146 0.056205302
0.041000001 -0.051806625 0.056205302
0.040000003 -0.051496696 0.054834444
0.039000001 -0.051139075 0.053463578
0.038000003 -0.050733779 0.05209272
0.037 -0.050280798 0.050721858
0.036000002 -0.049780138 0.049350999
0.036000002 -0.050638415 0.049350999
0.034000002 -0.05025696 0.046609275
0.033 -0.049565565 0.045238413
0.033 -0.05035232 0.045238413
0.032000002 -0.049589407 0.043867555
0.028000001 -0.04873113 0.038384106
0.028000001 -0.049398679 0.038384106
0.027000001 -0.048278149 0.037013248
0.027000001 -0.048921857 0.037013248
0.026000001 -0.047729805 0.035642385
0.026000001 -0.048349671 0.035642385
5.9520001 -2.412334 8.0174627
5.9520001 -2.5542359 8.0174627
5.9520001 -2.6961379 8.0174627
5.9520001 -2.8380399 8.0174627
5.9520001 -2.9799418 8.0174627
5.9520001 -3.1218438 8.0174627
5.9520001 -3.263746 8.0174627
5.9520001 -3.405648 8.0174627
5.9520001 -3.54755 8.0174627
5.9520001 -3.6894519 8.0174627
5.9520001 -3.8313539 8.0174627
0.50200003 -0.33510998 0.67620403
0.48000002 -0.33186758 0.64656955
0.48000002 -0.34331128 0.64656955
0.48000002 -0.35475501 0.64656955
0.078000002 -0.059507288 0.10506756
0.072000004 -0.056646362 0.096985437
0.07 -0.056741722 0.094291396
0.067000002 -0.05590729 0.090250343
0.065000005 -0.055788085 0.087556303
0.063000001 -0.055573512 0.084862255
0.061000004 -0.055263583 0.082168221
0.059000004 -0.054858282 0.079474181
0.057000004 -0.054357622 0.07678014
0.055000003 -0.053761594 0.0740861
0.054000001 -0.054071527 0.072739072
0.052000001 -0.053308614 0.070045039
0.051000003 -0.053499345 0.068698019
0.049000002 -0.052569542 0.066003978
0.048 -0.052641064 0.064656951
0.047000002 -0.052664906 0.063309938
0.046000004 -0.052641068 0.061962925
0.044000003 -0.051401328 0.059268881
0.043000001 -0.051258285 0.05792186
0.042000003 -0.051067557 0.05657484
0.041000001 -0.050829146 0.055227816
0.041000001 -0.051806625 0.055227816
0.040000003 -0.051496696 0.053880803
0.039000001 -0.051139075 0.052533779
0.038000003 -0.050733779 0.051186763
0.037 -0.050280798 0.049839739
0.036000002 -0.049780138 0.048492718
0.034000002 -0.05025696 0.045798682
0.033 -0.049565565 0.044451658
0.033 -0.05035232 0.044451658
0.032000002 -0.049589407 0.043104641
0.028000001 -0.04806358 0.03771656
0.028000001 -0.04873113 0.03771656
0.028000001 -0.049398679 0.03771656
0.027000001 -0.048278149 0.036369536
0.027000001 -0.048921857 0.036369536
0.026000001 -0.047729805 0.03502252
6.0590005 0.433359 8.0171413
6.0590005 0.28890601 8.0171413
6.0590005 0.144453 8.0171413
6.0590005 -0 8.0171413
6.0590005 -0.144453 8.0171413
6.0590005 -0.28890601 8.0171413
6.0590005 -0.433359 8.0171413
6.0600004 -2.4561062 8.0184641
6.0600004 -2.7450597 8.0184641
6.0600004 -3.0340135 8.0184641
6.0600004 -3.4674442 8.0184641
6.0600004 -3.6119208 8.0184641
6.0600004 -3.9008746 8.0184641
0.50200003 -0.33510998 0.66423583
0.48800004 -0.33739871 0.64571136
0.48800004 -0.34903315 0.64571136
0.077000007 -0.058744378 0.10188478
0.072000004 -0.056646362 0.095268883
0.07 -0.056741722 0.092622519
0.067000002 -0.05590729 0.088652991
0.065000005 -0.055788085 0.086006634
0.063000001 -0.055573512 0.08336027
0.061000004 -0.055263583 0.08071392
0.059000004 -0.054858282 0.078067556
0.057000004 -0.054357622 0.075421199
0.055000003 -0.053761594 0.072774842
0.054000001 -0.054071527 0.071451664
0.052000001 -0.053308614 0.0688053
0.051000003 -0.053499345 0.067482129
0.048 -0.052641064 0.063512586
0.047000002 -0.052664906 0.062189411
0.046000004 -0.052641068 0.060866233
0.043000001 -0.051258285 0.056896694
0.042000003 -0.051067557 0.055573516
0.041000001 -0.050829146 0.054250337
0.041000001 -0.051806625 0.054250337
0.040000003 -0.051496696 0.052927159
0.039000001 -0.051139075 0.051603977
0.038000003 -0.050733779 0.050280802
0.037 -0.050280798 0.04895762
0.034000002 -0.049446359 0.044988085
0.034000002 -0.05025696 0.044988085
0.033 -0.049565565 0.043664902
0.033 -0.05035232 0.043664902
0.028000001 -0.04806358 0.03704901
0.028000001 -0.04873113 0.03704901
0.028000001 -0.049398679 0.03704901
0.027000001 -0.048278149 0.035725832
0.027000001 -0.048921857 0.035725832
0.026000001 -0.047729805 0.03440265
6.1710005 -2.5010946 8.0182142
6.1710005 -2.7953408 8.0182142
6.1710005 -3.0895872 8.0182142
6.1710005 -3.5309567 8.0182142
6.1710005 -3.8252032 8.0182142
0.52700001 -0.33923444 0.68475109
0.50200003 -0.33510998 0.65226763
0.49700001 -0.34362122 0.64577091
0.49700001 -0.35547021 0.64577091
0.075000003 -0.057218548 0.097450338
0.072000004 -0.056646362 0.093552321
0.07 -0.056741722 0.090953641
0.067000002 -0.05590729 0.087055638
0.065000005 -0.055788085 0.084456965
0.063000001 -0.055573512 0.081858285
0.061000004 -0.055263583 0.079259612
0.057000004 -0.054357622 0.074062265
0.055000003 -0.053761594 0.071463585
0.054000001 -0.054071527 0.070164248
0.052000001 -0.053308614 0.067565568
0.051000003 -0.053499345 0.066266231
0.049000002 -0.052569542 0.063667558
0.048 -0.052641064 0.062368214
0.047000002 -0.052664906 0.061068878
0.046000004 -0.052641068 0.059769545
0.044000003 -0.051401328 0.057170868
0.043000001 -0.051258285 0.055871528
0.042000003 -0.051067557 0.054572191
0.041000001 -0.050829146 0.053272851
0.041000001 -0.051806625 0.053272851
0.040000003 -0.051496696 0.051973514
0.039000001 -0.051139075 0.050674174
0.038000003 -0.050733779 0.049374837
0.037 -0.050280798 0.048075497
0.035 -0.050066229 0.04547682
0.034000002 -0.049446359 0.044177491
0.034000002 -0.05025696 0.044177491
0.033 -0.049565565 0.042878151
0.029000001 -0.049088743 0.037680801
0.028000001 -0.04806358 0.036381461
0.028000001 -0.04873113 0.036381461
0.028000001 -0.049398679 0.036381461
0.027000001 -0.048278149 0.035082124
0.027000001 -0.048921857 0.035082124
6.2860003 -0.44959474 8.0177727
6.2870002 -2.5481088 8.0190487
6.2870002 -2.8478863 8.0190487
6.2870002 -3.1476638 8.0190487
6.2870002 -3.4474413 8.0190487
6.2870002 -3.5973301 8.0190487
6.2870002 -3.8971076 8.0190487
0.52700001 -0.33923444 0.67218679
0.50700003 -0.33844772 0.6466769
0.50700003 -0.35053512 0.6466769
0.080000006 -0.059125833 0.10203975
0.075000003 -0.057218548 0.095662259
0.072000004 -0.056646362 0.091835774
0.067000002 -0.05590729 0.085458279
0.065000005 -0.055788085 0.082907297
0.063000001 -0.055573512 0.080356292
0.061000004 -0.055263583 0.077805303
0.059000004 -0.054858282 0.075254314
0.057000004 -0.054357622 0.072703317
0.055000003 -0.053761594 0.070152327
0.054000001 -0.054071527 0.068876825
0.052000001 -0.053308614 0.066325828
0.049000002 -0.052569542 0.062499344
0.048 -0.052641064 0.061223842
0.047000002 -0.052664906 0.059948351
0.044000003 -0.051401328 0.056121863
0.043000001 -0.051258285 0.054846361
0.042000003 -0.051067557 0.05357087
0.041000001 -0.050829146 0.052295368
0.041000001 -0.051806625 0.052295368
0.040000003 -0.051496696 0.051019873
0.039000001 -0.051139075 0.049744375
0.038000003 -0.050733779 0.04846888
0.035 -0.050066229 0.044642385
0.034000002 -0.049446359 0.04336689
0.034000002 -0.05025696 0.04336689
0.033 -0.049565565 0.042091396
0.029000001 -0.048397355 0.036989406
0.029000001 -0.049088743 0.036989406
0.028000001 -0.04806358 0.035713907
0.028000001 -0.04873113 0.035713907
0.028000001 -0.049398679 0.035713907
0.027000001 -0.048278149 0.034438413
6.4070005 -2.5967445 8.0193586
6.4070005 -2.9022441 8.0193586
6.4070005 -3.0549939 8.0193586
6.4070005 -3.2077434 8.0193586
6.4070005 -3.513243 8.0193586
6.4070005 -3.6659925 8.0193586
6.4070005 -3.9714918 8.0193586
0.52700001 -0.33923444 0.65962255
0.51600003 -0.34445566 0.64585435
0.51600003 -0.35675764 0.64585435
0.079000004 -0.058386758 0.098880798
0.075000003 -0.057218548 0.093874179
0.072000004 -0.056646362 0.09011922
0.07 -0.056741722 0.087615892
0.067000002 -0.05590729 0.083860934
0.065000005 -0.055788085 0.081357628
0.063000001 -0.055573512 0.078854315
0.061000004 -0.055263583 0.076351002
0.059000004 -0.054858282 0.073847689
0.057000004 -0.054357622 0.071344383
0.055000003 -0.053761594 0.068841062
0.054000001 -0.054071527 0.06758941
0.052000001 -0.053308614 0.065086097
0.051000003 -0.053499345 0.063834444
0.049000002 -0.052569542 0.061331131
0.048 -0.052641064 0.060079474
0.047000002 -0.052664906 0.058827817
0.046000004 -0.052641068 0.057576168
0.044000003 -0.051401328 0.055072855
0.043000001 -0.051258285 0.053821195
0.042000003 -0.051067557 0.052569546
0.041000001 -0.050829146 0.051317882
0.041000001 -0.051806625 0.051317882
0.040000003 -0.051496696 0.050066233
0.039000001 -0.051139075 0.048814572
0.036000002 -0.050638415 0.04505961
0.035 -0.050066229 0.043807946
0.034000002 -0.049446359 0.042556297
0.034000002 -0.05025696 0.042556297
0.030000001 -0.049350996 0.037549675
0.029000001 -0.048397355 0.036298014
0.029000001 -0.049088743 0.036298014
0.028000001 -0.04806358 0.035046361
0.028000001 -0.04873113 0.035046361
0.028000001 -0.049398679 0.035046361
6.5320005 -2.8031368 8.0200863
6.5320005 -3.1145966 8.0200863
6.5320005 -3.5817859 8.0200863
0.55600005 -0.34464639 0.68266499
0.52700001 -0.33923444 0.64705831
0.52600002 -0.35113117 0.64583051
0.52600002 -0.36367154 0.64583051
0.079000004 -0.058386758 0.096997358
0.075000003 -0.057218548 0.092086099
0.072000004 -0.056646362 0.088402659
0.07 -0.056741722 0.085947022
0.067000002 -0.05590729 0.082263581
0.065000005 -0.055788085 0.079807952
0.063000001 -0.055573512 0.077352323
0.061000004 -0.055263583 0.074896693
0.059000004 -0.054858282 0.072441064
0.057000004 -0.054357622 0.069985434
0.055000003 -0.053761594 0.067529805
0.054000001 -0.054071527 0.066301994
0.051000003 -0.053499345 0.062618546
0.049000002 -0.052569542 0.060162921
0.048 -0.052641064 0.058935102
0.046000004 -0.052641068 0.056479476
0.044000003 -0.051401328 0.054023847
0.043000001 -0.051258285 0.052796032
0.042000003 -0.051067557 0.051568218
0.041000001 -0.050829146 0.050340403
0.041000001 -0.051806625 0.050340403
0.040000003 -0.051496696 0.049112588
0.039000001 -0.051139075 0.047884773
0.036000002 -0.049780138 0.044201329
0.036000002 -0.050638415 0.044201329
0.035 -0.050066229 0.042973511
0.034000002 -0.049446359 0.0417457
0.030000001 -0.049350996 0.036834441
0.029000001 -0.048397355 0.035606626
0.029000001 -0.049088743 0.035606626
0.028000001 -0.04806358 0.034378812
0.028000001 -0.04873113 0.034378812
6.6610003 -2.5408852 8.0196686
6.6610003 -2.8584955 8.0196686
6.6610003 -3.1761062 8.0196686
6.6610003 -3.6525221 8.0196686
6.6620002 -3.9707289 8.0208721
0.55600005 -0.34464639 0.66940939
0.537 -0.34567156 0.64653379
0.537 -0.3584742 0.64653379
0.083000004 -0.059364244 0.099929817
0.079000004 -0.058386758 0.095113911
0.075000003 -0.057218548 0.090298019
0.072000004 -0.056646362 0.086686105
0.07 -0.056741722 0.084278151
0.067000002 -0.05590729 0.080666229
0.065000005 -0.055788085 0.078258291
0.063000001 -0.055573512 0.075850338
0.061000004 -0.055263583 0.073442392
0.059000004 -0.054858282 0.071034446
0.057000004 -0.054357622 0.068626501
0.055000003 -0.053761594 0.066218548
0.054000001 -0.054071527 0.065014571
0.052000001 -0.053308614 0.062606625
0.051000003 -0.053499345 0.061402656
0.049000002 -0.052569542 0.05899471
0.048 -0.052641064 0.05779073
0.047000002 -0.052664906 0.056586757
0.046000004 -0.052641068 0.055382792
0.044000003 -0.051401328 0.052974839
0.043000001 -0.051258285 0.051770866
0.042000003 -0.051067557 0.050566893
0.041000001 -0.050829146 0.049362916
0.041000001 -0.051806625 0.049362916
0.040000003 -0.051496696 0.048158947
0.036000002 -0.049780138 0.043343052
0.036000002 -0.050638415 0.043343052
0.035 -0.050066229 0.042139076
0.030000001 -0.048635766 0.036119208
0.030000001 -0.049350996 0.036119208
0.029000001 -0.048397355 0.034915235
0.029000001 -0.049088743 0.034915235
0.028000001 -0.04806358 0.033711262
6.7960005 0.48607159 8.0201807
6.7960005 -0.48607159 8.0201807
6.7960005 -2.5923817 8.0201807
6.7960005 -2.9164295 8.0201807
6.7960005 -3.2404773 8.0201807
6.7960005 -3.5645249 8.0201807
6.7960005 -3.7265489 8.0201807
6.7960005 -4.0505967 8.0201807
0.55600005 -0.34464639 0.65615374
0.54700005 -0.35210866 0.64553255
0.54700005 -0.36514974 0.64553255
0.082000002 -0.058649011 0.096770868
0.079000004 -0.058386758 0.093230471
0.075000003 -0.057218548 0.088509947
0.072000004 -0.056646362 0.084969543
0.07 -0.056741722 0.082609281
0.067000002 -0.05590729 0.079068877
0.065000005 -0.055788085 0.076708622
0.063000001 -0.055573512 0.074348353
0.061000004 -0.055263583 0.071988083
0.059000004 -0.054858282 0.069627821
0.057000004 -0.054357622 0.067267559
0.055000003 -0.053761594 0.06490729
0.052000001 -0.053308614 0.06136689
0.051000003 -0.053499345 0.060186762
0.049000002 -0.052569542 0.057826493
0.047000002 -0.052664906 0.055466231
0.046000004 -0.052641068 0.054286096
0.044000003 -0.051401328 0.051925834
0.043000001 -0.051258285 0.0507457
0.042000003 -0.051067557 0.049565569
0.041000001 -0.050829146 0.048385434
0.041000001 -0.051806625 0.048385434
0.040000003 -0.051496696 0.047205303
0.037 -0.050280798 0.043664902
0.036000002 -0.049780138 0.042484771
0.036000002 -0.050638415 0.042484771
0.035 -0.050066229 0.04130464
0.031000001 -0.049517885 0.036584109
0.030000001 -0.048635766 0.035403978
0.030000001 -0.049350996 0.035403978
0.029000001 -0.048397355 0.034223843
0.029000001 -0.049088743 0.034223843
6.9360003 0.49608481 8.0200377
6.9360003 0.3307232 8.0200377
6.9360003 0.1653616 8.0200377
6.9360003 -0 8.0200377
6.9360003 -0.1653616 8.0200377
6.9360003 -0.3307232 8.0200377
6.9360003 -0.49608481 8.0200377
6.9370003 -2.646167 8.0211945
6.8980002 -2.9602015 7.976099
6.9370003 -3.307709 8.0211945
6.9370003 -3.4730942 8.0211945
6.9370003 -3.6384797 8.0211945
6.9370003 -3.8038652 8.0211945
6.9370003 -4.1346359 8.0211945
0.55900002 -0.346506 0.64636695
0.55900002 -0.35983312 0.64636695
0.55900002 -0.3731603 0.64636695
0.082000002 -0.058649011 0.094815902
0.079000004 -0.058386758 0.091347024
0.075000003 -0.057218548 0.08672186
0.072000004 -0.056646362 0.083252989
0.07 -0.056741722 0.080940403
0.067000002 -0.05590729 0.077471524
0.065000005 -0.055788085 0.075158946
0.063000001 -0.055573512 0.072846361
0.061000004 -0.055263583 0.070533782
0.059000004 -0.054858282 0.068221197
0.057000004 -0.054357622 0.065908618
0.055000003 -0.053761594 0.063596033
0.054000001 -0.054071527 0.06243974
0.052000001 -0.053308614 0.060127154
0.051000003 -0.053499345 0.058970865
0.049000002 -0.052569542 0.056658283
0.048 -0.052641064 0.05550199
0.047000002 -0.052664906 0.054345701
0.046000004 -0.052641068 0.053189412
0.044000003 -0.051401328 0.050876826
0.043000001 -0.051258285 0.049720533
0.042000003 -0.051067557 0.048564244
0.041000001 -0.050829146 0.047407951
0.041000001 -0.051806625 0.047407951
0.038000003 -0.050733779 0.043939076
0.037 -0.050280798 0.042782784
0.036000002 -0.049780138 0.041626494
0.036000002 -0.050638415 0.041626494
0.031000001 -0.048778813 0.035845038
0.031000001 -0.049517885 0.035845038
0.030000001 -0.048635766 0.034688745
0.030000001 -0.049350996 0.034688745
0.029000001 -0.048397355 0.033532452
0.029000001 -0.049088743 0.033532452
6.9830003 -2.6637142 7.9079013
7.0830002 -3.2084587 8.0211458
7.0830002 -3.7150574 8.0211458
7.0840001 -4.0533619 8.0222788
7.0840001 -4.2222519 8.0222788
0.57000005 -0.35332453 0.64549679
0.57000005 -0.36691397 0.64549679
0.086000003 -0.059459608 0.097390734
0.082000002 -0.058649011 0.092860937
0.079000004 -0.058386758 0.089463584
0.075000003 -0.057218548 0.08493378
0.072000004 -0.056646362 0.081536427
0.07 -0.056741722 0.079271533
0.067000002 -0.05590729 0.07587418
0.063000001 -0.055573512 0.071344376
0.061000004 -0.055263583 0.069079481
0.059000004 -0.054858282 0.066814572
0.057000004 -0.054357622 0.064549677
0.054000001 -0.054071527 0.06115232
0.052000001 -0.053308614 0.058887422
0.051000003 -0.053499345 0.057754971
0.048 -0.052641064 0.054357618
0.047000002 -0.052664906 0.053225171
0.046000004 -0.052641068 0.05209272
0.044000003 -0.051401328 0.049827822
0.043000001 -0.051258285 0.048695367
0.042000003 -0.051067557 0.04756292
0.041000001 -0.050829146 0.046430469
0.038000003 -0.050733779 0.043033119
0.037 -0.050280798 0.041900665
0.036000002 -0.049780138 0.040768214
0.031000001 -0.048778813 0.035105962
0.031000001 -0.049517885 0.035105962
0.030000001 -0.048635766 0.033973511
0.030000001 -0.049350996 0.033973511
0.029000001 -0.048397355 0.032841064
7.2360005 -2.7602229 8.0218973
7.2360005 -2.9327369 8.0218973
7.2360005 -3.1052506 8.0218973
7.2360005 -3.2777646 8.0218973
7.2360005 -3.4502785 8.0218973
7.2360005 -3.6227925 8.0218973
7.2360005 -3.7953064 8.0218973
7.2360005 -3.9678202 8.0218973
7.2360005 -4.1403346 8.0218973
7.2360005 -4.3128481 8.0218973
7.2360005 -4.4853621 8.0218973
0.583 -0.37528214 0.64631921
0.091000006 -0.060747027 0.10088345
0.086000003 -0.059459608 0.095340408
0.082000002 -0.058649011 0.090905964
0.079000004 -0.058386758 0.087580137
0.075000003 -0.057218548 0.0831457
0.072000004 -0.056646362 0.079819873
0.07 -0.056741722 0.077602655
0.067000002 -0.05590729 0.074276827
0.065000005 -0.055788085 0.072059616
0.063000001 -0.055573512 0.069842383
0.061000004 -0.055263583 0.067625172
0.059000004 -0.054858282 0.065407954
0.057000004 -0.054357622 0.063190736
0.055000003 -0.053761594 0.060973518
0.054000001 -0.054071527 0.059864905
0.052000001 -0.053308614 0.057647686
0.051000003 -0.053499345 0.056539081
0.049000002 -0.052569542 0.054321859
0.048 -0.052641064 0.05321325
0.047000002 -0.052664906 0.052104641
0.046000004 -0.052641068 0.050996035
0.044000003 -0.051401328 0.048778813
0.043000001 -0.051258285 0.047670204
0.042000003 -0.051067557 0.046561591
0.041000001 -0.050829146 0.045452982
0.039000001 -0.051139075 0.043235764
0.038000003 -0.050733779 0.042127155
0.037 -0.050280798 0.041018546
0.032000002 -0.049589407 0.0354755
0.031000001 -0.048778813 0.034366891
0.031000001 -0.049517885 0.034366891
0.030000001 -0.048635766 0.033258278
0.030000001 -0.049350996 0.033258278
7.3960004 -3.3502414 8.0229464
7.3960004 -3.5265698 8.0229464
7.3960004 -3.7028985 8.0229464
7.3960004 -3.8792267 8.0229464
7.3960004 -4.0555553 8.0229464
7.3960004 -4.231884 8.0229464
7.3960004 -4.4082122 8.0229464
7.3960004 -4.5845408 8.0229464
7.3960004 -4.7608695 8.0229464
0.090000004 -0.060079478 0.097629152
0.086000003 -0.059459608 0.093290076
0.082000002 -0.058649011 0.088950999
0.079000004 -0.058386758 0.085696697
0.075000003 -0.057218548 0.081357621
0.072000004 -0.056646362 0.078103326
0.07 -0.056741722 0.075933784
0.067000002 -0.05590729 0.072679475
0.065000005 -0.055788085 0.07050994
0.063000001 -0.055573512 0.068340398
0.061000004 -0.055263583 0.066170871
0.059000004 -0.054858282 0.064001329
0.057000004 -0.054357622 0.061831795
0.055000003 -0.053761594 0.05966226
0.054000001 -0.054071527 0.058577489
0.052000001 -0.053308614 0.056407951
0.051000003 -0.053499345 0.055323184
0.049000002 -0.052569542 0.053153649
0.048 -0.052641064 0.052068878
0.047000002 -0.052664906 0.050984111
0.046000004 -0.052641068 0.049899343
0.044000003 -0.051401328 0.047729809
0.043000001 -0.051258285 0.046645038
0.042000003 -0.051067557 0.045560271
0.041000001 -0.050829146 0.0444755
0.041000001 -0.051806625 0.0444755
0.040000003 -0.051496696 0.043390736
0.039000001 -0.051139075 0.042305965
0.038000003 -0.050733779 0.041221198
0.037 -0.050280798 0.040136427
0.036000002 -0.049780138 0.039051663
0.033 -0.05035232 0.03579735
0.032000002 -0.049589407 0.034712583
0.031000001 -0.048778813 0.033627816
0.031000001 -0.049517885 0.033627816
0.030000001 -0.048635766 0.032543048
7.5630002 -3.9668188 8.0237923
7.5630002 -4.1471286 8.0237923
7.5630002 -4.3274388 8.0237923
7.5630002 -4.5077491 8.0237923
7.5630002 -4.6880584 8.0237923
0.096000001 -0.061796028 0.10184901
0.090000004 -0.060079478 0.095483452
0.086000003 -0.059459608 0.091239735
0.082000002 -0.058649011 0.086996034
0.079000004 -0.058386758 0.08381325
0.075000003 -0.057218548 0.079569548
0.072000004 -0.056646362 0.076386765
0.07 -0.056741722 0.074264906
0.067000002 -0.05590729 0.071082123
0.065000005 -0.055788085 0.068960272
0.063000001 -0.055573512 0.066838421
0.061000004 -0.055263583 0.064716563
0.059000004 -0.054858282 0.062594712
0.057000004 -0.054357622 0.060472853
0.055000003 -0.053761594 0.058351003
0.054000001 -0.054071527 0.05729007
0.052000001 -0.053308614 0.055168215
0.051000003 -0.053499345 0.05410729
0.049000002 -0.052569542 0.051985435
0.048 -0.052641064 0.050924506
0.047000002 -0.052664906 0.049863581
0.046000004 -0.052641068 0.048802659
0.044000003 -0.051401328 0.046680801
0.043000001 -0.051258285 0.045619868
0.042000003 -0.051067557 0.044558946
0.041000001 -0.050829146 0.043498017
0.041000001 -0.051806625 0.043498017
0.040000003 -0.051496696 0.042437088
0.039000001 -0.051139075 0.041376162
0.038000003 -0.050733779 0.040315237
0.037 -0.050280798 0.039254304
0.036000002 -0.049780138 0.038193382
0.036000002 -0.050638415 0.038193382
0.035 -0.050066229 0.037132453
0.034000002 -0.049446359 0.036071524
0.034000002 -0.05025696 0.036071524
0.033 -0.049565565 0.035010599
0.033 -0.05035232 0.035010599
0.032000002 -0.049589407 0.033949673
0.031000001 -0.048778813 0.032888744
0.031000001 -0.049517885 0.032888744
7.7370005 -4.7959156 8.0239363
0.095000006 -0.061152324 0.098523192
0.090000004 -0.060079478 0.093337759
0.086000003 -0.059459608 0.08918941
0.082000002 -0.058649011 0.085041068
0.079000004 -0.058386758 0.08192981
0.075000003 -0.057218548 0.077781461
0.072000004 -0.056646362 0.07467021
0.07 -0.056741722 0.072596028
0.067000002 -0.05590729 0.06948477
0.065000005 -0.055788085 0.067410611
0.063000001 -0.055573512 0.065336429
0.061000004 -0.055263583 0.063262261
0.059000004 -0.054858282 0.061188087
0.057000004 -0.054357622 0.059113912
0.055000003 -0.053761594 0.057039741
0.054000001 -0.054071527 0.056002654
0.052000001 -0.053308614 0.05392848
0.051000003 -0.053499345 0.052891396
0.049000002 -0.052569542 0.050817221
0.048 -0.052641064 0.049780134
0.047000002 -0.052664906 0.048743051
0.046000004 -0.052641068 0.047705963
0.044000003 -0.051401328 0.045631796
0.043000001 -0.051258285 0.044594705
0.042000003 -0.051067557 0.043557622
0.041000001 -0.050829146 0.042520534
0.041000001 -0.051806625 0.042520534
0.040000003 -0.051496696 0.041483447
0.039000001 -0.051139075 0.04044636
0.038000003 -0.050733779 0.039409272
0.037 -0.050280798 0.038372189
0.036000002 -0.049780138 0.037335105
0.036000002 -0.050638415 0.037335105
0.035 -0.050066229 0.036298014
0.034000002 -0.049446359 0.035260931
0.034000002 -0.05025696 0.035260931
0.033 -0.049565565 0.034223843
0.033 -0.05035232 0.034223843
0.032000002 -0.049589407 0.033186756
0.031000001 -0.048778813 0.032149673
0.082000002 -0.058649011 0.083086096
0.079000004 -0.058386758 0.080046363
0.075000003 -0.057218548 0.075993381
0.072000004 -0.056646362 0.072953649
0.07 -0.056741722 0.070927158
0.067000002 -0.05590729 0.067887425
0.065000005 -0.055788085 0.065860935
0.063000001 -0.055573512 0.063834444
0.061000004 -0.055263583 0.061807957
0.059000004 -0.054858282 0.059781462
0.057000004 -0.054357622 0.057754971
0.055000003 -0.053761594 0.05572848
0.054000001 -0.054071527 0.054715235
0.052000001 -0.053308614 0.052688744
0.051000003 -0.053499345 0.051675502
0.049000002 -0.052569542 0.049649011
0.043000001 -0.051258285 0.043569539
0.042000003 -0.051067557 0.042556297
0.041000001 -0.050829146 0.041543048
0.041000001 -0.051806625 0.041543048
0.040000003 -0.051496696 0.040529806
0.039000001 -0.051139075 0.039516561
0.038000003 -0.050733779 0.038503315
0.037 -0.050280798 0.03749007
0.036000002 -0.049780138 0.036476824
0.036000002 -0.050638415 0.036476824
0.035 -0.050066229 0.035463579
0.034000002 -0.049446359 0.034450334
0.034000002 -0.05025696 0.034450334
0.033 -0.049565565 0.033437088
0.033 -0.05035232 0.033437088
0.032000002 -0.049589407 0.032423846
